<svg width="133" height="64" viewBox="0 0 133 64" version="1.1" xmlns="http://www.w3.org/2000/svg" xmlns:xlink="http://www.w3.org/1999/xlink">
<title>Logo</title>
<desc>Created using Figma</desc>
<g id="Canvas" transform="translate(-2389 -704)">
<g id="Logo">
<g id="Subtract">
<use xlink:href="#path0_fill" transform="translate(2389 704)" fill="#1378C6"/>
</g>
<g id="Vector">
<use xlink:href="#path1_fill" transform="translate(2498.15 718.333)" fill="#FFFFFF"/>
</g>
<g id="Vector">
<use xlink:href="#path2_fill" transform="translate(2477.35 718.871)" fill="#FFFFFF"/>
</g>
<g id="Vector">
<use xlink:href="#path3_fill" transform="translate(2403.81 718.291)" fill="#FFFFFF"/>
</g>
<g id="Vector">
<use xlink:href="#path4_fill" transform="translate(2429.72 718.913)" fill="#FFFFFF"/>
</g>
<g id="Vector">
<use xlink:href="#path5_fill" transform="translate(2454.62 718.333)" fill="#FFFFFF"/>
</g>
</g>
</g>
<defs>
<path id="path0_fill" fill-rule="evenodd" d="M 133 11.8058C 133 5.30225 127.643 0 121.073 0L 11.9272 0C 5.35669 0 0 5.30225 0 11.8058L 0 52.1942C 0 58.6978 5.35669 64 11.9272 64L 121.073 64C 127.643 64 133 58.6978 133 52.1942L 133 11.8058Z"/>
<path id="path1_fill" d="M 2.55433e-06 2.9411C 2.55433e-06 1.32557 1.29736 6.32079e-07 2.92952 6.32079e-07C 4.51983 6.32079e-07 5.85903 1.32557 5.85903 2.9411C 5.85903 4.55663 4.56168 5.92363 2.92952 5.92363C 1.29736 5.92363 2.55433e-06 4.59806 2.55433e-06 2.9411ZM 5.31497 2.9411C 5.31497 1.61553 4.22687 0.497087 2.92952 0.497087C 1.59031 0.497087 0.54405 1.61553 0.54405 2.9411C 0.54405 4.26667 1.63216 5.42654 2.92952 5.42654C 4.22687 5.42654 5.31497 4.30809 5.31497 2.9411ZM 1.92512 1.53269L 3.01321 1.53269C 3.59911 1.53269 3.97577 1.78123 3.97577 2.23689C 3.97577 2.65113 3.76652 2.85825 3.47357 3.02395L 4.14317 4.18382L 3.43171 4.26667L 2.84581 3.14822L 2.55287 3.14822L 2.55287 4.22524L 1.88326 4.22524L 1.88326 1.53269L 1.92512 1.53269ZM 2.59471 2.7754L 2.84581 2.7754C 3.18061 2.7754 3.30617 2.52686 3.30617 2.31974C 3.30617 2.02977 3.09692 1.94693 2.88767 1.94693L 2.59471 1.94693L 2.59471 2.7754Z"/>
<path id="path2_fill" d="M 29.881 33.3463L 21.9295 33.3463L 18.8326 24.3573L 7.28194 24.3573C 3.89207 27.2155 -2.55433e-06 27.7126 -2.55433e-06 27.7126L 11.3833 3.1604e-07L 17.2423 3.1604e-07L 29.881 33.3463ZM 9.2489 19.9249L 17.7026 19.9249L 13.5595 7.37346L 9.2489 19.9249Z"/>
<path id="path3_fill" d="M 10.0441 34.5061C 6.11013 34.5061 2.42731 33.2634 0.125551 31.1508L 3.19292e-07 31.0265L 2.63656 26.9256L 2.80397 27.0498C 4.68722 28.4168 6.65418 29.6595 9.5 29.6595C 11.8018 29.6595 14.4802 28.4997 14.4802 25.31C 14.4802 22.4518 11.5507 20.3806 8.99779 18.5165C 4.60352 15.3683 1.42291 12.8414 1.42291 8.20194C 1.42291 3.60388 6.15198 -3.1604e-07 12.1784 -3.1604e-07C 16.2379 -3.1604e-07 19.2511 1.49126 20.7159 2.9411L 20.8414 3.06537L 18.2467 6.79353L 18.0793 6.66926C 17.033 5.96505 14.9824 4.80518 12.8062 4.80518C 10.2952 4.80518 8.70484 6.08932 8.70484 8.07767C 8.70484 9.98317 10.7974 11.6401 14.8568 14.7884C 19.2929 18.1851 21.7621 21.0848 21.7621 25.31C 21.7621 29.8667 17.3678 34.5061 10.0441 34.5061Z"/>
<path id="path4_fill" d="M 7.11454 33.3049L -6.38584e-07 33.3049L -6.38584e-07 -3.1604e-07L 10.6718 -3.1604e-07C 18.6233 -3.1604e-07 23.0176 3.43819 23.0176 9.6932C 23.0176 13.5456 20.7577 18.7651 14.522 20.3392C 11.2996 21.1262 8.57929 19.3036 9.1652 16.1968C 12.7643 16.5282 15.9449 14.4984 15.9449 9.94175C 15.9449 6.62783 13.8106 4.8466 9.96035 4.8466L 7.15639 4.8466L 7.15639 33.3049L 7.11454 33.3049Z"/>
<path id="path5_fill" d="M 19.5022 6.32079e-07C 13.7687 6.32079e-07 8.8304 1.82265 5.23128 5.21942C 1.84141 8.40906 2.55433e-06 12.7586 2.55433e-06 17.3981C 2.55433e-06 20.8362 0.878857 24.1916 2.51102 26.9256C 3.97577 29.3282 6.19383 31.3994 8.91409 32.8906C 11.8436 34.5061 15.2335 35.3346 18.707 35.3346C 18.7907 35.3346 18.8744 35.3346 18.9581 35.3346C 26.3238 35.2518 31.1784 31.6893 31.848 29.1625C 32.141 28.0854 31.7643 27.2155 30.7599 26.677L 30.5925 26.5527L 30.4251 26.677C 26.9515 29.5767 23.1432 30.1981 20.5485 30.1981C 18.6233 30.1981 16.7401 29.8667 15.0661 29.2453C 10.63 27.5883 7.86784 22.9903 7.86784 17.5223C 7.86784 10.2731 12.5551 5.38511 19.5441 5.38511C 22.5154 5.38511 25.4031 6.71068 26.1982 7.12492L 26.4912 7.29062L 26.6167 7.00065L 28.3744 2.73398L 28.4581 2.48544L 28.207 2.31974C 26.2401 1.24272 23.1013 6.32079e-07 19.5022 6.32079e-07Z"/>
</defs>
</svg>
